PathFileType	4	(X/Y/Z)	C:/Users/opensim2020/Desktop/walking_exp_matlab/subject06_walking20_straight_01.trc	
DataRate	CameraRate	NumFrames	NumMarkers	Units	OrigDataRate	OrigDataStartFrame	OrigNumFrames	
100.00	100.00	4	43	mm	100.00	828	127	
Frame#	Time	LFHD			RFHD			LBHD			RBHD			C7			T10			CLAV			STRN			RBAK			LSHO			LUPA			LELB			LFRM			LWRA			LWRB			LFIN			RSHO			RUPA			RELB			RFRM			RWRA			RWRB			RFIN			LASI			RASI			LPSI			RPSI			LTHI			LKNE			LTIB			LANK			LHEE			LTOE			RTHI			RKNE			RTIB			RANK			RHEE			RTOE			*39			*40			*41			*42			
		X1	Y1	Z1	X2	Y2	Z2	X3	Y3	Z3	X4	Y4	Z4	X5	Y5	Z5	X6	Y6	Z6	X7	Y7	Z7	X8	Y8	Z8	X9	Y9	Z9	X10	Y10	Z10	X11	Y11	Z11	X12	Y12	Z12	X13	Y13	Z13	X14	Y14	Z14	X15	Y15	Z15	X16	Y16	Z16	X17	Y17	Z17	X18	Y18	Z18	X19	Y19	Z19	X20	Y20	Z20	X21	Y21	Z21	X22	Y22	Z22	X23	Y23	Z23	X24	Y24	Z24	X25	Y25	Z25	X26	Y26	Z26	X27	Y27	Z27	X28	Y28	Z28	X29	Y29	Z29	X30	Y30	Z30	X31	Y31	Z31	X32	Y32	Z32	X33	Y33	Z33	X34	Y34	Z34	X35	Y35	Z35	X36	Y36	Z36	X37	Y37	Z37	X38	Y38	Z38	X39	Y39	Z39	X40	Y40	Z40	X41	Y41	Z41	X42	Y42	Z42	X43	Y43	Z43	

96	0.950	-1049.43518	364.27365	1631.54065	-919.18396	353.73340	1611.82385	-1066.24438	236.43495	1569.30994	-938.08728	226.54623	1554.43677	-1015.79834	239.91945	1410.84106	-1014.16022	214.47267	1080.98267	-1010.41272	351.67859	1335.57275	-1022.94452	395.07944	1161.57971	-946.62024	167.19810	1235.40076	-1173.34521	303.28342	1369.99133	-1255.41382	330.39761	1175.04761	-1276.83179	353.81790	1067.23511	-1292.22461	467.99341	974.43005	-1238.59290	586.85431	946.20935	-1276.08643	556.00244	895.03650	-1275.63269	644.27875	882.45569	-850.76685	295.55750	1361.75000	-770.26569	219.26283	1175.13831	-757.16559	204.11360	1052.95605	-737.82220	186.77177	933.82886	-765.61212	203.20816	779.98853	-725.87085	152.36832	800.39734	-722.07330	162.65724	716.40405	-1127.26282	386.26846	920.78595	-909.17212	408.00742	940.59918	-1089.96155	232.54651	946.60620	-922.68195	250.89395	959.33313	-1178.68152	284.34125	603.67950	-1161.36182	261.67514	440.59076	-1143.82922	53.76487	295.59988	-1103.81860	-79.20080	188.18951	-1058.12256	-108.10351	216.27138	-1084.51160	-39.35322	46.61777	-845.64539	454.09332	632.46680	-878.42230	505.95529	520.00635	-872.66333	520.72064	253.22314	-916.45233	525.29590	67.77272	-958.07703	483.88116	44.63004	-923.04846	676.70703	34.71505	-998.25342	256.94888	1659.48071	-1008.00653	386.44910	1535.98804						 
97	0.960	-1047.44055	378.03796	1633.58301	-917.21716	367.65814	1613.25708	-1064.48120	250.47820	1570.87744	-936.39728	240.77466	1555.55322	-1014.53406	254.24051	1412.40210	-1014.05988	228.66028	1083.00537	-1009.66077	366.27914	1337.30029	-1022.52502	409.57458	1163.25427	-945.66345	181.83926	1237.29138	-1172.11096	317.65500	1372.15186	-1253.55396	344.02792	1176.90588	-1274.39050	365.97922	1068.92957	-1289.94360	478.64633	974.12512	-1236.77966	597.08942	943.85211	-1274.03918	565.20044	893.11200	-1274.01709	653.03351	878.87561	-849.90222	310.80008	1363.16125	-768.85333	237.00395	1175.52783	-755.96344	222.93562	1053.38989	-736.48474	207.19235	934.06989	-764.20868	225.27058	781.13519	-724.34821	174.77399	800.16144	-720.92969	186.14430	716.18500	-1125.98120	401.47238	922.00916	-907.58435	421.30557	943.59357	-1090.44446	247.26033	947.75653	-923.03082	264.20871	961.13470	-1177.37476	305.58435	603.37512	-1160.37708	287.04214	440.06641	-1143.88977	77.69642	300.37402	-1104.74695	-58.10610	197.16539	-1058.97498	-83.88742	227.59369	-1085.06274	-30.54135	52.00994	-845.18829	466.46466	633.01678	-878.76141	517.41785	520.34546	-874.09583	527.82306	253.27415	-917.07935	525.95233	68.13322	-958.47058	484.03427	44.83137	-923.65051	677.33459	34.10459	-996.14301	270.54990	1660.76086	-1008.68536	398.91348	1537.58289						 
98	0.970	-1045.44946	392.02356	1636.35864	-915.31616	381.56433	1614.99634	-1062.80200	264.45975	1573.04358	-934.83295	254.79071	1556.84009	-1013.46802	268.55902	1414.66113	-1013.72443	242.59077	1085.42566	-1009.03009	380.61487	1339.48572	-1022.22192	423.69525	1165.31628	-945.05536	196.32980	1239.50659	-1171.22766	331.84991	1374.53125	-1251.75879	357.56006	1178.93396	-1272.03003	377.56870	1070.60986	-1287.92358	488.73535	973.64661	-1235.25745	606.61383	941.01105	-1272.23059	573.61908	890.84198	-1272.39697	661.12793	874.69214	-849.11145	325.90839	1364.87061	-767.48584	254.76392	1176.27673	-754.70544	241.74803	1054.07312	-735.19952	227.91666	934.56555	-762.37408	249.06117	782.54114	-722.96521	197.59618	800.17499	-719.84125	210.31325	716.45978	-1124.60779	415.81775	923.82623	-906.03796	434.14868	946.40143	-1090.33350	261.47113	949.42651	-922.88617	277.57251	962.97754	-1175.70398	326.79504	603.61145	-1158.84192	312.92871	440.21307	-1143.74365	103.01781	304.06552	-1105.63086	-35.81246	205.36378	-1059.66565	-59.00246	237.37572	-1087.20142	-17.46094	58.67708	-845.46075	477.32443	632.38721	-879.30377	528.14996	520.24414	-875.20868	532.97357	253.00128	-917.49182	526.46399	68.37785	-958.58545	484.01755	44.97412	-924.26221	677.62152	33.76646	-993.98248	284.25375	1662.61914									 
99	0.980	-1043.48022	405.83963	1639.35095	-913.57104	395.51004	1617.06018	-1061.34119	278.51459	1575.80054	-933.45154	268.82764	1558.74170	-1012.59564	282.86411	1417.40027	-1013.43719	256.26849	1088.25220	-1008.50781	394.70279	1341.98462	-1021.83429	437.51910	1167.70081	-944.26099	210.41556	1242.38855	-1170.55688	345.86603	1377.08057	-1250.18640	370.74338	1181.03479	-1269.93225	388.85263	1072.27966	-1285.63525	497.64902	972.76794	-1233.92358	615.57080	937.70514	-1270.64233	581.19519	888.19873	-1270.85059	668.33124	869.89246	-848.34265	340.83261	1366.90503	-766.01385	272.59598	1177.30823	-753.26764	260.43369	1055.20483	-734.00928	248.68092	935.36578	-761.66162	272.17380	783.80359	-721.71075	220.80081	800.54279	-718.87299	235.25302	717.07465	-1124.15625	430.29156	926.27679	-904.57581	446.76086	948.87683	-1089.85449	275.31778	951.53394	-922.33917	290.77695	965.07263	-1173.88672	347.92078	604.41174	-1156.97412	338.86096	441.07919	-1143.43982	129.55902	306.52664	-1105.80725	-13.40246	213.09155	-1059.26904	-35.74042	244.94791	-1090.38464	1.89116	65.22043	-846.28375	487.42270	631.94812	-880.29285	538.05255	519.91205	-875.50580	536.71466	252.85098	-917.61298	526.82263	68.46200	-958.57434	483.84244	45.05568	-924.55853	677.67401	33.65926	-991.88446	298.08038	1664.94421									 
